PathFileType	4	(X/Y/Z)	OpenSim_Sub08_CSStiffKnee_Gyro.trc
DataRate	CameraRate	NumFrames	NumMarkers	Units	OrigDataRate	OrigDataStartFrame	OrigNumFrames
100	100	40	8	m	100	3302	5282
Frame#	Time	torso_imu_offset_imu	pelvis_imu_offset_imu	tibia_r_imu_offset_imu	femur_r_imu_offset_imu	tibia_l_imu_offset_imu	femur_l_imu_offset_imu	toes_r_imu_offset_imu	toes_l_imu_offset_imu
				X1	Y1	Z1	X2	Y2	Z2	X3	Y3	Z3	X4	Y4	Z4	X5	Y5	Z5	X6	Y6	Z6	X7	Y7	Z7	X8		Y8	Z8	

3302	33.01000000	0.04429683	-0.31818589	0.02148822	-0.23803242	0.02977194	-0.43780519	-0.05879537	-0.47652212	-0.71060524	0.10558906	-0.37094065	-0.67955467	2.71117659	-0.86531536	-0.84289368	-0.24681592	0.79948730	-1.94997405	0.13677439	-0.09613566	-0.09580745	-2.19587353	2.28186569	2.26255973
3303	33.02000000	0.20676270	-0.18800533	-0.00557736	-0.15087226	-0.04393944	-0.46859423	-0.25129834	-0.44353996	-0.67415425	-0.13746202	-0.32642968	-0.68467035	2.71209558	-0.54785681	-1.28495802	-0.19357826	0.79582053	-1.93078281	0.14068349	-0.08195708	-0.10071369	-0.56472787	2.56158495	1.44938485
3304	33.03000000	0.31431889	-0.12971518	-0.02770740	-0.07771553	-0.08628830	-0.44867489	-0.39428115	-0.38815404	-0.63188962	-0.35791373	-0.29834786	-0.66105705	2.31099346	-0.66406090	-1.48182913	-0.15305093	0.70837144	-1.86217935	0.14500404	-0.07194228	-0.08329980	1.18766215	2.84820640	0.58792588
3305	33.04000000	0.32413576	-0.16013509	-0.03734692	-0.02825874	-0.07769322	-0.40019323	-0.56472082	-0.37783075	-0.60787741	-0.56293332	-0.25545324	-0.62975256	1.83056846	-0.89541148	-1.81498547	-0.18737813	0.58258047	-1.80912681	0.10429358	-0.07101643	-0.06317647	2.05965753	3.04459069	-0.13666960
3306	33.05000000	0.29112209	-0.20932571	-0.08807318	0.00349799	-0.03540881	-0.35223058	-0.72972768	-0.37420482	-0.61152900	-0.70284311	-0.19693831	-0.62210834	1.42647433	-0.89493695	-2.31276162	-0.32765828	0.47394082	-1.73156578	0.07088649	-0.10114525	-0.05254131	2.07318637	3.21771284	-0.73514784
3307	33.06000000	0.27177488	-0.24646083	-0.11217474	0.01435328	0.01640782	-0.32510983	-0.85308333	-0.34262483	-0.62589122	-0.80756734	-0.15492066	-0.64197282	1.08468509	-0.82615911	-2.83553969	-0.51485911	0.40952525	-1.58066956	0.04182158	-0.12196081	-0.04418929	1.53863775	3.48523457	-1.26164205
3308	33.07000000	0.25397077	-0.27718585	-0.06109335	-0.01202310	0.07176127	-0.33569210	-0.93799901	-0.32571612	-0.64266423	-0.92555851	-0.12707106	-0.64337139	0.61294767	-0.78396300	-3.35740761	-0.70369916	0.40183893	-1.41764435	0.01986920	-0.11352627	-0.05220689	0.99369487	3.87015226	-1.76798445
3309	33.08000000	0.22290631	-0.31024489	-0.01917972	-0.06379751	0.11301811	-0.37635103	-0.93047374	-0.31545956	-0.64888847	-1.01850975	-0.12003924	-0.61414401	-0.01298314	-0.69135128	-3.89283774	-0.82909213	0.41478977	-1.30279677	0.02382262	-0.11635036	-0.07367675	0.77897928	4.31033164	-2.25157477
3310	33.09000000	0.20422238	-0.36376283	0.00327736	-0.13235512	0.14179318	-0.42762764	-0.81586840	-0.28476162	-0.63837365	-1.01075010	-0.13812960	-0.56015545	-0.66826211	-0.55345437	-4.39159667	-0.84942932	0.40122250	-1.23977155	0.04563995	-0.11383853	-0.09592909	0.84803890	4.70843844	-2.65534697
3311	33.10000000	0.20296942	-0.39743942	0.01480389	-0.20851038	0.16836305	-0.47434476	-0.64138390	-0.26490970	-0.64411266	-0.90089083	-0.14553260	-0.50549980	-1.32903393	-0.40952924	-4.80903559	-0.78592922	0.34514998	-1.18813778	0.07101660	-0.08366077	-0.12484700	1.01897226	4.88972498	-2.92209061
3312	33.11000000	0.20280768	-0.39897800	0.00544306	-0.27256560	0.19271112	-0.49956505	-0.49995511	-0.25056321	-0.68541281	-0.75262569	-0.14791349	-0.46540523	-2.06482080	-0.20049391	-5.14285321	-0.68331742	0.25728759	-1.09579635	0.04583329	-0.07224128	-0.14293192	1.13847506	4.83134463	-3.04647110
3313	33.12000000	0.21221110	-0.41928221	-0.00346915	-0.31512220	0.20971286	-0.49319378	-0.45538102	-0.23384133	-0.72246122	-0.61236229	-0.14477743	-0.43964790	-2.75728036	-0.01045448	-5.24892443	-0.55751522	0.13402080	-0.94264808	0.02699761	-0.07421611	-0.15896607	1.23827112	4.68012923	-3.13139012
3314	33.13000000	0.23098742	-0.42730891	0.01320241	-0.34981296	0.20952881	-0.46714883	-0.45407345	-0.21200359	-0.73420219	-0.48768242	-0.14029228	-0.44153315	-2.75168512	0.09022970	-5.11771318	-0.43497433	0.01283695	-0.75754472	0.03327803	-0.03031577	-0.17783307	1.21036082	4.54519693	-3.24098966
3315	33.14000000	0.23504383	-0.41485876	0.03225650	-0.37992507	0.18130878	-0.41927027	-0.50654494	-0.18224880	-0.73878588	-0.39926241	-0.13305034	-0.45120800	-1.64760490	0.19896804	-5.03201598	-0.39758483	-0.05193123	-0.56221056	0.03794514	-0.03631383	-0.21308141	1.00857311	4.45556378	-3.27046911
3316	33.15000000	0.22263187	-0.39335965	0.01324283	-0.40855039	0.13822059	-0.36099521	-0.59734192	-0.16107984	-0.74169790	-0.37499269	-0.09892700	-0.46448112	-0.42292977	0.43728290	-5.22698289	-0.41663897	-0.09996614	-0.36241530	0.04267367	-0.03287256	-0.25117515	0.49141676	4.35224108	-3.01207176
3317	33.16000000	0.21791244	-0.35544724	-0.02273456	-0.46330511	0.13172713	-0.30862926	-0.57260461	-0.12848348	-0.77698290	-0.40383482	-0.05750817	-0.48995890	0.18463536	0.74696763	-5.54949808	-0.41569616	-0.16985771	-0.20705760	0.03726382	-0.00274344	-0.26838773	-0.06565238	4.35265316	-2.47941871
3318	33.17000000	0.21038550	-0.32513949	-0.04959420	-0.54132816	0.16957903	-0.26979963	-0.53306837	-0.08849335	-0.80713586	-0.47156402	-0.03835371	-0.49788039	0.43920746	0.83659209	-5.62334930	-0.33354926	-0.25939139	-0.07637666	0.04361143	-0.00172319	-0.27706991	-0.17373723	4.63923329	-1.90939964
3319	33.18000000	0.19308257	-0.30903728	-0.02545352	-0.59690648	0.19077201	-0.24231334	-0.52347291	-0.09418036	-0.80908178	-0.53822472	-0.03089937	-0.48255978	0.32627654	0.77567524	-5.42458434	-0.21070831	-0.34983771	0.05008725	0.02953395	-0.04502019	-0.28605750	0.37107617	4.96833068	-1.42145485
3320	33.19000000	0.16529798	-0.29780889	0.02579266	-0.64295216	0.18849957	-0.21742464	-0.49802987	-0.09315219	-0.80917002	-0.60428110	-0.01341743	-0.47803425	0.11123139	0.71897505	-5.27006507	-0.11051587	-0.41075601	0.15699579	0.05986738	-0.03876418	-0.29651397	0.99117880	5.00312999	-0.97606233
3321	33.20000000	0.14094738	-0.27778279	0.03862350	-0.70419774	0.18567010	-0.21223848	-0.49645572	-0.05950412	-0.82936814	-0.68043527	0.01025748	-0.49332973	0.02872853	0.52849830	-5.24583061	-0.03128421	-0.46443976	0.25973222	0.01794740	-0.03023486	-0.26923049	0.97014237	4.89301872	-0.58903857
3322	33.21000000	0.12580038	-0.24082394	0.02406571	-0.75515601	0.19115279	-0.21870981	-0.59618848	-0.05093669	-0.84551355	-0.72315032	0.03237703	-0.51414770	-0.21620187	0.32542476	-5.13300887	-0.01797115	-0.54592083	0.35550494	-0.02824822	-0.05961203	-0.25036120	0.30603171	4.85334312	-0.37990413
3323	33.22000000	0.11647312	-0.20305419	0.01504852	-0.78202785	0.21430137	-0.22272179	-0.68139585	-0.04775775	-0.81254829	-0.73059021	0.03271703	-0.55186635	-0.56850368	0.35864978	-4.93310803	-0.09317268	-0.62781803	0.44413677	0.03611359	-0.05158966	-0.25851209	-0.26825522	4.79927106	-0.49028780
3324	33.23000000	0.11427291	-0.17480329	0.01608196	-0.77640870	0.23846124	-0.22375329	-0.66879213	-0.01278742	-0.75476540	-0.72418985	0.03490922	-0.58944641	-0.78609815	0.50180388	-4.74864026	-0.22962751	-0.65199830	0.48959861	0.04444698	-0.05196734	-0.26041380	-0.42168007	4.67900927	-0.97941493
3325	33.24000000	0.11935501	-0.14819654	0.02521303	-0.72266935	0.21751094	-0.22151319	-0.63790577	0.00345732	-0.72714734	-0.70864613	0.05458847	-0.60483726	-1.00217108	0.57956108	-4.53654794	-0.40503354	-0.58108488	0.49229065	0.01470275	-0.06100672	-0.23482309	-0.18081238	4.15513424	-1.60062823
3326	33.25000000	0.13230106	-0.12640994	0.04101105	-0.66221966	0.15384463	-0.22465584	-0.56991966	0.01631287	-0.74947399	-0.67159600	0.07217814	-0.62209904	-1.26422389	0.53703628	-4.30899637	-0.58265770	-0.45145455	0.47295204	-0.00093937	-0.07261429	-0.21269111	-0.85671815	3.55658129	-2.09266889
3327	33.26000000	0.15363914	-0.11202770	0.04313751	-0.61540677	0.07039141	-0.22786007	-0.50868495	0.05569893	-0.76600808	-0.62431235	0.07492522	-0.65542072	-1.32856762	0.42639916	-4.11533260	-0.73851255	-0.33167391	0.42053982	0.00469209	-0.05568411	-0.20567547	-1.34712041	3.33085849	-2.61103632
3328	33.27000000	0.17458214	-0.10389501	0.04718628	-0.58814452	0.00125848	-0.23126064	-0.49747454	0.07045491	-0.75544369	-0.60236409	0.06538074	-0.69100783	-1.46478527	0.51070597	-3.82778737	-0.87963349	-0.23840782	0.36386780	0.00673577	-0.05873490	-0.19901150	-1.03454360	3.14499224	-3.15821557
3329	33.28000000	0.18837832	-0.10409940	0.05246912	-0.57610616	-0.05158533	-0.23588450	-0.54663277	0.09666255	-0.75887330	-0.60400155	0.06867233	-0.73210283	-1.70945057	0.66437372	-3.37370830	-0.91849173	-0.18943657	0.31691636	0.02343744	-0.05452503	-0.21985890	-0.64008393	2.67013693	-3.51616216
3330	33.29000000	0.20596860	-0.10372004	0.05363724	-0.55940397	-0.09320789	-0.23498349	-0.61361400	0.12085078	-0.77414599	-0.61244607	0.07201770	-0.78103784	-1.60093296	0.57183176	-2.97690054	-0.88548882	-0.17564079	0.26264275	0.01640734	-0.02939150	-0.22820852	-0.51553230	2.15974492	-3.49459906
3331	33.30000000	0.22333929	-0.09957046	0.05002830	-0.55979945	-0.07628097	-0.22963629	-0.67127435	0.11819283	-0.78701197	-0.59791652	0.06358438	-0.82565643	-1.26635784	0.51621548	-2.64105179	-0.71775973	-0.19168902	0.23875375	0.00465171	-0.01076887	-0.24086327	-1.39521423	1.84261201	-3.04861936
3332	33.31000000	0.24396401	-0.07456002	0.05553079	-0.56597921	-0.04683298	-0.22989060	-0.71964872	0.12759053	-0.80714536	-0.59028196	0.07059466	-0.85379432	-1.49917267	0.49177433	-2.08890355	-0.37638138	-0.23533688	0.26122076	0.01671821	-0.01368240	-0.28148728	-1.98226277	1.48082953	-2.47201424
3333	33.32000000	0.26406581	-0.02878523	0.06835315	-0.57031370	-0.07340050	-0.24769768	-0.67804864	0.14664782	-0.84204333	-0.63028714	0.09157772	-0.85714255	-2.07442074	0.28923558	-1.45421590	-0.09082862	-0.27532345	0.32068721	0.05396772	0.00044473	-0.31997923	-1.84549369	1.17219589	-1.95048491
3334	33.33000000	0.27633399	0.02335395	0.06852737	-0.59292099	-0.11750704	-0.26793066	-0.59170535	0.16227982	-0.89759033	-0.68280185	0.10857997	-0.83565987	-2.11126339	0.07288299	-0.85653536	-0.00063550	-0.27693508	0.39198176	0.01979542	0.00962625	-0.33912868	-0.95449623	0.80258168	-1.52282212
3335	33.34000000	0.28314486	0.08259455	0.05287725	-0.61824571	-0.14228121	-0.30153004	-0.55996208	0.18518627	-0.95768922	-0.73697471	0.13442439	-0.80361073	-1.71330532	-0.01608029	-0.16666292	-0.09383637	-0.23927161	0.39464248	-0.02139851	-0.02430796	-0.37039817	-0.08331776	0.21221801	-1.14664325
3336	33.35000000	0.27426247	0.14403008	0.02681675	-0.61919442	-0.16171535	-0.34619491	-0.50072581	0.19679397	-1.01213818	-0.80267431	0.17172147	-0.78629735	-1.22663131	-0.11478597	0.40800868	-0.25547039	-0.21318361	0.27229206	0.00435713	-0.03644203	-0.39153926	-0.00507261	-0.31336771	-0.79294526
3337	33.36000000	0.25872966	0.20105387	-0.00116899	-0.60981072	-0.18080100	-0.37609581	-0.50444554	0.18771323	-1.05398456	-0.87910766	0.21875922	-0.77015249	-0.69519054	-0.30850798	0.85700471	-0.38609194	-0.21204895	0.02569941	-0.01471876	-0.06306217	-0.40192530	-0.09692569	-1.18892481	-0.20641697
3338	33.37000000	0.23208127	0.24456768	-0.00762953	-0.61182658	-0.17708701	-0.40603696	-0.64307041	0.17430348	-1.10439120	-0.95142229	0.27883929	-0.75222370	-0.31539127	-0.50819038	1.32506361	-0.45004548	-0.25259660	-0.23536581	-0.07463109	-0.10956765	-0.41670354	-0.71070901	-2.59191793	0.48866178
3339	33.38000000	0.17440725	0.25062242	0.01560286	-0.63825160	-0.17504444	-0.43012835	-0.78415957	0.15954946	-1.18527226	-0.98793842	0.34704276	-0.76327746	-0.18298064	-0.74323552	1.73943234	-0.41999853	-0.40809615	-0.38148302	-0.09455424	-0.18594672	-0.39684242	-0.52947114	-2.82549522	1.21216699
3340	33.39000000	0.09860223	0.20789488	0.03219008	-0.62406614	-0.16332534	-0.42430789	-0.94128281	0.16575530	-1.26928075	-0.98908152	0.40461992	-0.78216307	-0.36948556	-0.86651193	2.04429617	-0.37364801	-0.58298218	-0.36848309	-0.31622430	-0.28513723	-0.35216379	-0.21581792	-2.54212382	1.15396451
3341	33.40000000	0.02864558	0.18925644	0.05957383	-0.55964797	-0.05344606	-0.40830208	-1.07500968	0.13513185	-1.35393962	-0.97075201	0.44723745	-0.77474837	-0.19928650	-1.15015415	1.75412375	-0.43538542	-0.65717452	-0.21559786	-0.30909129	-0.51645837	-0.28766065	0.45157444	-2.69148298	0.66558358
